#!OML:ASF G:\JayActor3\Patient Classification 1\Patient 1\Session 6\male.ASF
:FULLY-SPECIFIED
:DEGREES
1389
root 5.15733 16.3372 -22.1242 14.4662 -139.353 -1.15056
lowerback 19.4257 -1.38494 4.46663
upperback 12.044 -2.82604 0.601129
thorax 2.04778 -1.87888 -1.42
lowerneck -15.2719 1.81805 2.95232
upperneck 18.917 2.46713 -4.39243
head 8.50428 0.827621 -1.69236
rclavicle 3.18055e-014 1.21259e-014
rhumerus 33.2589 32.7948 -55.117
rradius 72.2242
rwrist -36.2056
rhand -49.4818 -1.26478
rfingers 7.12502
rthumb -22.0917 -30.0228
lclavicle 3.18055e-014 1.21259e-014
lhumerus 38.2418 -32.9451 61.8359
lradius 49.2328
lwrist 36.9769
lhand -26.7833 -20.5637
lfingers 7.12502
lthumb -0.210822 9.41592
rfemur -34.5389 12.955 3.53835
rtibia 36.891
rfoot -16.7153 -24.4905
rtoes -7.55247
lfemur -29.9847 -1.0795 -9.71844
ltibia 25.5271
lfoot -6.07924 11.3632
ltoes -12.1003
1390
root 5.16123 16.3374 -22.1415 14.3396 -139.44 -1.31357
lowerback 19.2497 -1.34959 4.45566
upperback 12.0734 -2.79411 0.644727
thorax 2.17293 -1.86334 -1.38185
lowerneck -15.3013 1.87036 3.03033
upperneck 19.1814 2.5084 -4.35547
head 8.60138 0.850327 -1.69061
rclavicle -6.71892e-014 5.36719e-014
rhumerus 33.2875 33.2 -54.8842
rradius 72.34
rwrist -36.2178
rhand -49.5597 -1.32095
rfingers 7.12502
rthumb -22.1665 -30.0701
lclavicle -6.71892e-014 5.36719e-014
lhumerus 37.4949 -33.0313 62.0163
lradius 49.6629
lwrist 36.9814
lhand -26.8155 -20.6649
lfingers 7.12502
lthumb -0.241916 9.31473
rfemur -34.3075 12.9498 3.54634
rtibia 36.9764
rfoot -16.7649 -24.4004
rtoes -7.54168
lfemur -29.5046 -1.03244 -9.83736
ltibia 25.2498
lfoot -6.07279 11.3402
ltoes -12.0721
1391
root 5.16436 16.3375 -22.159 14.21 -139.534 -1.48947
lowerback 19.0802 -1.31183 4.42624
upperback 12.0977 -2.76017 0.677098
thorax 2.28918 -1.84723 -1.34497
lowerneck -15.3232 1.92238 3.10583
upperneck 19.4608 2.54687 -4.30963
head 8.70229 0.872161 -1.68593
rclavicle -2.82274e-014 -3.35946e-014
rhumerus 33.3157 33.6183 -54.662
rradius 72.4339
rwrist -36.2473
rhand -49.4511 -1.39365
rfingers 7.12502
rthumb -22.0622 -30.1551
lclavicle -2.82274e-014 -3.35946e-014
lhumerus 36.7522 -33.1224 62.1919
lradius 50.0738
lwrist 37.0244
lhand -26.7255 -20.6972
lfingers 7.12502
lthumb -0.154924 9.28247
rfemur -34.068 12.9554 3.54194
rtibia 37.0713
rfoot -16.8239 -24.3122
rtoes -7.55113
lfemur -29.0013 -0.979779 -9.9707
ltibia 24.9632
lfoot -6.07779 11.3095
ltoes -12.0144
1392
root 5.16655 16.3373 -22.1766 14.0674 -139.626 -1.66245
lowerback 18.917 -1.27656 4.39569
upperback 12.1194 -2.72854 0.700456
thorax 2.39881 -1.83198 -1.31608
lowerneck -15.3593 1.97806 3.19375
upperneck 19.7682 2.58759 -4.27124
head 8.81614 0.894521 -1.6858
rclavicle 3.89618e-014 -1.21259e-014
rhumerus 33.3259 34.0513 -54.4409
rradius 72.5363
rwrist -36.2964
rhand -49.2977 -1.5127
rfingers 7.12502
rthumb -21.9149 -30.2915
lclavicle 3.89618e-014 -1.21259e-014
lhumerus 36.0037 -33.2136 62.3625
lradius 50.4859
lwrist 37.1302
lhand -26.5136 -20.664
lfingers 7.12502
lthumb 0.04967 9.31572
rfemur -33.8159 12.9651 3.54046
rtibia 37.1694
rfoot -16.869 -24.2378
rtoes -7.6181
lfemur -28.4838 -0.931929 -10.1031
ltibia 24.679
lfoot -6.09565 11.2769
ltoes -11.9324
1393
root 5.16788 16.3369 -22.194 13.9025 -139.707 -1.81024
lowerback 18.7589 -1.24558 4.38448
upperback 12.1341 -2.69773 0.723127
thorax 2.49788 -1.81581 -1.29803
lowerneck -15.4024 2.03282 3.27691
upperneck 20.1 2.62572 -4.22852
head 8.93994 0.915199 -1.68393
rclavicle -6.63941e-014 -8.34896e-015
rhumerus 33.3307 34.4982 -54.2143
rradius 72.6363
rwrist -36.3734
rhand -49.1491 -1.62402
rfingers 7.12502
rthumb -21.7722 -30.4195
lclavicle -6.63941e-014 -8.34896e-015
lhumerus 35.2449 -33.3177 62.5234
lradius 50.9184
lwrist 37.306
lhand -26.2291 -20.5785
lfingers 7.12502
lthumb 0.324441 9.40095
rfemur -33.5501 12.9814 3.55961
rtibia 37.2643
rfoot -16.9195 -24.1738
rtoes -7.70238
lfemur -27.9685 -0.894101 -10.213
ltibia 24.4111
lfoot -6.12678 11.2445
ltoes -11.8359
1394
root 5.1682 16.3362 -22.2113 13.7144 -139.771 -1.92747
lowerback 18.6062 -1.2229 4.39391
upperback 12.1402 -2.67267 0.751639
thorax 2.58443 -1.80137 -1.28377
lowerneck -15.4544 2.09098 3.35522
upperneck 20.454 2.67077 -4.19778
head 9.07398 0.936847 -1.68472
rclavicle 1.15295e-014 -1.78906e-015
rhumerus 33.3145 34.9696 -53.9652
rradius 72.7661
rwrist -36.4632
rhand -49.0163 -1.75156
rfingers 7.12502
rthumb -21.6447 -30.5617
lclavicle 1.15295e-014 -1.78906e-015
lhumerus 34.4571 -33.4305 62.6868
lradius 51.3827
lwrist 37.5371
lhand -25.9195 -20.4691
lfingers 7.12502
lthumb 0.623492 9.5097
rfemur -33.2695 12.998 3.60456
rtibia 37.3519
rfoot -16.9631 -24.1248
rtoes -7.81706
lfemur -27.4662 -0.871011 -10.2957
ltibia 24.1715
lfoot -6.17091 11.2165
ltoes -11.7367
1395
root 5.1673 16.3351 -22.2284 13.4952 -139.81 -2.00602
lowerback 18.4586 -1.21096 4.43573
upperback 12.141 -2.65594 0.789364
thorax 2.66207 -1.78957 -1.27608
lowerneck -15.5075 2.15286 3.42536
upperneck 20.8153 2.72485 -4.18059
head 9.21196 0.960316 -1.68778
rclavicle 6.0033e-014 -2.38542e-015
rhumerus 33.2668 35.4613 -53.6922
rradius 72.9413
rwrist -36.5463
rhand -48.8956 -1.85404
rfingers 7.12502
rthumb -21.5287 -30.6775
lclavicle 6.0033e-014 -2.38542e-015
lhumerus 33.6387 -33.5589 62.8541
lradius 51.8838
lwrist 37.8038
lhand -25.6396 -20.3496
lfingers 7.12502
lthumb 0.893865 9.62826
rfemur -32.9661 13.0171 3.68186
rtibia 37.4283
rfoot -17.0188 -24.082
rtoes -7.9182
lfemur -26.9811 -0.86863 -10.3442
ltibia 23.9678
lfoot -6.22732 11.1915
ltoes -11.6303
1396
root 5.16532 16.3336 -22.2454 13.2537 -139.821 -2.05203
lowerback 18.3063 -1.21026 4.50638
upperback 12.1412 -2.65012 0.835181
thorax 2.74096 -1.78174 -1.27436
lowerneck -15.5543 2.21924 3.49068
upperneck 21.1578 2.79071 -4.18347
head 9.34367 0.987023 -1.6953
rclavicle 1.11319e-014 1.03368e-014
rhumerus 33.2027 35.9629 -53.3961
rradius 73.1593
rwrist -36.6096
rhand -48.7862 -1.95867
rfingers 7.12502
rthumb -21.4237 -30.7942
lclavicle 1.11319e-014 1.03368e-014
lhumerus 32.8144 -33.7135 62.9912
lradius 52.4188
lwrist 38.0528
lhand -25.4279 -20.2176
lfingers 7.12502
lthumb 1.09834 9.75928
rfemur -32.6429 13.038 3.78532
rtibia 37.4935
rfoot -17.097 -24.0489
rtoes -7.97404
lfemur -26.5213 -0.886103 -10.3638
ltibia 23.8015
lfoot -6.29374 11.1652
ltoes -11.5277
1397
root 5.16198 16.3319 -22.2624 12.9903 -139.806 -2.07692
lowerback 18.1539 -1.22085 4.59511
upperback 12.1413 -2.65708 0.889702
thorax 2.81942 -1.77965 -1.27154
lowerneck -15.5987 2.28955 3.54689
upperneck 21.4921 2.8686 -4.20606
head 9.47352 1.01637 -1.70654
rclavicle -3.18055e-015 3.97569e-016
rhumerus 33.1119 36.4788 -53.0767
rradius 73.4277
rwrist -36.6436
rhand -48.6781 -2.02324
rfingers 7.12502
rthumb -21.3198 -30.8705
lclavicle -3.18055e-015 3.97569e-016
lhumerus 31.9821 -33.9016 63.0855
lradius 53.0007
lwrist 38.323
lhand -25.2129 -20.0756
lfingers 7.12502
lthumb 1.30591 9.90017
rfemur -32.2908 13.0573 3.90718
rtibia 37.5477
rfoot -17.2028 -24.018
rtoes -7.95486
lfemur -26.0752 -0.929504 -10.3651
ltibia 23.6676
lfoot -6.3734 11.1408
ltoes -11.4064
1398
root 5.15747 16.3298 -22.2793 12.718 -139.769 -2.09485
lowerback 17.9892 -1.23996 4.69101
upperback 12.1478 -2.67651 0.946997
thorax 2.91087 -1.78342 -1.26863
lowerneck -15.6358 2.36512 3.59544
upperneck 21.7964 2.9607 -4.24667
head 9.59293 1.05021 -1.72065
rclavicle -5.36719e-014 -3.57812e-015
rhumerus 33.0358 36.9975 -52.7317
rradius 73.7177
rwrist -36.6514
rhand -48.5682 -2.07434
rfingers 7.12502
rthumb -21.2143 -30.9335
lclavicle -5.36719e-014 -3.57812e-015
lhumerus 31.1536 -34.1102 63.1426
lradius 53.6134
lwrist 38.6049
lhand -24.9659 -19.9074
lfingers 7.12502
lthumb 1.54448 10.0667
rfemur -31.9185 13.0715 4.03449
rtibia 37.594
rfoot -17.3254 -23.9938
rtoes -7.89837
lfemur -25.6425 -0.994777 -10.3612
ltibia 23.5584
lfoot -6.46318 11.1178
ltoes -11.2693
1399
root 5.15186 16.3275 -22.2963 12.4441 -139.716 -2.12144
lowerback 17.8149 -1.25968 4.78493
upperback 12.1607 -2.69891 0.998884
thorax 3.01398 -1.7884 -1.27056
lowerneck -15.673 2.437 3.6415
upperneck 22.0827 3.04874 -4.2867
head 9.70646 1.08232 -1.73446
rclavicle 5.96354e-014 -7.31528e-014
rhumerus 32.9704 37.5034 -52.3714
rradius 74.015
rwrist -36.6509
rhand -48.433 -2.08199
rfingers 7.12502
rthumb -21.0844 -30.9557
lclavicle 5.96354e-014 -7.31528e-014
lhumerus 30.3444 -34.3585 63.1541
lradius 54.2488
lwrist 38.8786
lhand -24.7136 -19.7088
lfingers 7.12502
lthumb 1.7882 10.2635
rfemur -31.5252 13.0785 4.15498
rtibia 37.6349
rfoot -17.4652 -23.9683
rtoes -7.79949
lfemur -25.2123 -1.08036 -10.366
ltibia 23.4648
lfoot -6.56448 11.0978
ltoes -11.1191
1400
root 5.14553 16.3248 -22.3135 12.1724 -139.661 -2.15368
lowerback 17.6205 -1.27321 4.87542
upperback 12.1833 -2.71656 1.0407
thorax 3.1383 -1.79039 -1.2832
lowerneck -15.7189 2.50655 3.70155
upperneck 22.3543 3.13308 -4.33719
head 9.81721 1.11297 -1.75454
rclavicle -2.8625e-014 2.78299e-015
rhumerus 32.8828 37.9872 -52.001
rradius 74.3522
rwrist -36.6665
rhand -48.2754 -2.04914
rfingers 7.12502
rthumb -20.933 -30.9396
lclavicle -2.8625e-014 2.78299e-015
lhumerus 29.5636 -34.6491 63.1233
lradius 54.8925
lwrist 39.0927
lhand -24.5023 -19.4709
lfingers 7.12502
lthumb 1.99227 10.4995
rfemur -31.1261 13.0845 4.26795
rtibia 37.6738
rfoot -17.6037 -23.9482
rtoes -7.67347
lfemur -24.7852 -1.17187 -10.3778
ltibia 23.382
lfoot -6.67885 11.0799
ltoes -10.957
1401
root 5.13876 16.3219 -22.3309 11.9063 -139.606 -2.18935
lowerback 17.4028 -1.27973 4.95819
upperback 12.2122 -2.72816 1.07369
thorax 3.28173 -1.78879 -1.30298
lowerneck -15.753 2.57186 3.76028
upperneck 22.5994 3.21071 -4.3793
head 9.9164 1.14202 -1.77211
rclavicle -2.34566e-014 -5.1684e-015
rhumerus 32.8003 38.4566 -51.6192
rradius 74.6985
rwrist -36.7205
rhand -48.0941 -2.02018
rfingers 7.12502
rthumb -20.7588 -30.9298
lclavicle -2.34566e-014 -5.1684e-015
lhumerus 28.8066 -34.9668 63.0723
lradius 55.5243
lwrist 39.223
lhand -24.3077 -19.1805
lfingers 7.12502
lthumb 2.18015 10.7882
rfemur -30.7286 13.0922 4.37451
rtibia 37.7122
rfoot -17.7468 -23.9263
rtoes -7.54294
lfemur -24.3634 -1.25863 -10.3951
ltibia 23.3062
lfoot -6.80539 11.0561
ltoes -10.789
1402
root 5.13195 16.3187 -22.3487 11.6449 -139.547 -2.22182
lowerback 17.1572 -1.28031 5.03979
upperback 12.2484 -2.73447 1.09514
thorax 3.44752 -1.78328 -1.3365
lowerneck -15.7863 2.63403 3.83013
upperneck 22.8301 3.28052 -4.41703
head 10.0105 1.16932 -1.79088
rclavicle -4.6118e-014 3.85642e-014
rhumerus 32.7242 38.9071 -51.2303
rradius 75.0492
rwrist -36.8225
rhand -47.906 -2.02187
rfingers 7.12502
rthumb -20.578 -30.9512
lclavicle -4.6118e-014 3.85642e-014
lhumerus 28.0758 -35.3022 63.0049
lradius 56.1373
lwrist 39.2787
lhand -24.1236 -18.8341
lfingers 7.12502
lthumb 2.35803 11.1326
rfemur -30.338 13.1014 4.48175
rtibia 37.7508
rfoot -17.8819 -23.912
rtoes -7.44281
lfemur -23.9511 -1.33072 -10.4114
ltibia 23.235
lfoot -6.93932 11.016
ltoes -10.6344
